<?xml version="1.0" standalone="no"?><!DOCTYPE svg PUBLIC "-//W3C//DTD SVG 1.1//EN" "http://www.w3.org/Graphics/SVG/1.1/DTD/svg11.dtd"><svg t="1708572604236" class="icon" viewBox="0 0 1024 1024" version="1.1" xmlns="http://www.w3.org/2000/svg" p-id="7832" xmlns:xlink="http://www.w3.org/1999/xlink" width="200" height="200"><path d="M824.64 720.192a42.88 42.88 0 0 0-29.952-11.776 37.696 37.696 0 0 0-28.16 12.864c-63.488 72.768-174.272 80.64-218.88 80.64-82.944 0-146.368-21.056-188.544-62.464-40.064-39.296-61.12-97.28-62.464-172.16-3.2-173.632 95.104-353.28 265.216-353.28 81.28 0 144.384 57.664 167.68 82.432a42.88 42.88 0 0 0 30.848 13.632 37.312 37.312 0 0 0 29.44-13.44l6.656-7.808a75.52 75.52 0 0 0 17.28-58.176 85.12 85.12 0 0 0-30.72-55.808A329.856 329.856 0 0 0 569.792 99.2c-104.704 0-208.128 48.128-283.712 132.16-79.488 88.32-121.92 208.448-119.488 338.368 1.92 104.256 36.096 191.872 98.88 253.44 67.52 66.24 166.336 101.184 285.888 101.184 140.288 0 227.2-41.536 275.52-76.352 18.688-13.44 29.824-34.752 30.72-58.24a83.904 83.904 0 0 0-26.624-63.68l-6.272-5.888z" fill="#FC5531" p-id="7833"></path></svg>